<?xml version="1.0" encoding="UTF-8"?>
<!DOCTYPE svg PUBLIC "-//W3C//DTD SVG 1.1//EN" "http://www.w3.org/Graphics/SVG/1.1/DTD/svg11.dtd">
<!-- Creator: CorelDRAW -->
<svg xmlns="http://www.w3.org/2000/svg" xml:space="preserve" width="550mm" height="150mm" version="1.1" style="shape-rendering:geometricPrecision; text-rendering:geometricPrecision; image-rendering:optimizeQuality; fill-rule:evenodd; clip-rule:evenodd"
viewBox="0 0 55000 15000"
 xmlns:xlink="http://www.w3.org/1999/xlink"
 xmlns:xodm="http://www.corel.com/coreldraw/odm/2003">
 <defs>
  <style type="text/css">
   <![CDATA[
    .fil1 {fill:#112353}
    .fil0 {fill:#122452}
   ]]>
  </style>
 </defs>
 <g id="Layer_x0020_1">
  <metadata id="CorelCorpID_0Corel-Layer"/>
  <g id="_1853632269488">
   <path class="fil0" d="M49215.07 10466.53c120.75,-1.35 449.47,-43.18 445.48,132.07 -3.85,169.04 -329.96,132.33 -448.69,129.9l3.21 -261.97zm-327.4 846.76l324.41 0 0.16 -408.1 230.39 -0.34 210.18 406.57 353.16 1.67 -246.98 -451.05c52.18,-40.65 218.58,-74.03 234.17,-246.06 11.91,-131.55 -75.68,-240.83 -189.03,-287.99 -170.3,-70.84 -705.9,-45.09 -916.43,-45.09l-0.03 1030.39z"/>
   <path class="fil0" d="M41126.26 11311.77l250.99 -0.34 -1.39 -687.6c99.44,97.41 484.19,663.4 545.24,689.46l263.16 0 -0.08 -1030.39 -248.8 0c0,185.09 -5.48,418.18 4.27,597.75l-466.04 -597.35 -347.34 -0.27 -0.01 1028.74z"/>
   <path class="fil0" d="M44966.11 11313.31l242.66 -0.15 2 -689.55 530.38 685.78 277.96 3.99 -0.02 -1030.06 -248.83 -0.45 0.96 599.05c-36.19,-30.3 -188.89,-243.56 -233.74,-300.69 -39.72,-50.62 -200.44,-277.45 -237.79,-298.31l-338.6 0c0.19,127.44 -8.48,980.75 5.02,1030.39z"/>
   <polygon class="fil0" points="45243.63,13715.36 45778.44,14405.36 46052.2,14404.92 46052.35,13374.82 45803.02,13379.73 45804.41,13975.94 45345.7,13375.02 44994.35,13375.06 44998.28,14405.62 45245.72,14403.46 "/>
   <path class="fil0" d="M43265.83 12174.18c46.5,37.18 223.76,279.02 269.28,341.71 42.21,58.14 91.63,112.69 133.75,170.66 36.6,50.39 101.89,122.59 129.75,173.14l277.9 -4.03 -1.28 -1026.36 -247.81 0.47 3.85 591.77c-45.6,-28.51 -194.06,-241.82 -240.22,-300.45 -64.47,-81.89 -159.81,-225.3 -230.5,-292.23l-341.84 0.06 -0.01 1030.5 251.21 -8.34 -4.08 -676.9z"/>
   <path class="fil0" d="M43335.21 11200.06c27.79,28.91 27.71,87.74 59.26,113.23l136.88 0 -0.27 -551.04 -563.42 0.2 -1.72 188.71 258.46 3.9c-11.21,163.23 -178.84,203.02 -315.63,163.78 -255.01,-73.15 -249.63,-580.61 5.36,-645.18 149.66,-37.91 278.19,24.04 309.34,177.14l304.46 -29.4c-43.38,-429.12 -922.27,-515.89 -1100.97,-7.93 -82.95,235.8 -8.62,513.79 205.05,637.52 153.05,88.63 394.62,104.54 560.71,35.31 67.48,-28.12 88.13,-54.07 142.49,-86.24z"/>
   <polygon class="fil0" points="46295.22,11313.24 46611.58,11313.17 46611.8,10888.28 47039.72,10888.57 47040.89,11313.29 47357.19,11313.13 47357.19,10283.09 47040.83,10282.89 47040.82,10680.79 46611.6,10684.68 46611.6,10283.62 46295.25,10282.86 "/>
   <path class="fil0" d="M40398.31 13568.61c189.91,-51.58 297.55,60.04 318.12,240.13 16.76,146.66 -0.74,361.69 -167.29,405.44 -185.76,48.81 -297.85,-62.4 -320.88,-236.64 -20.15,-152.31 -0.41,-362.64 170.05,-408.93zm654.73 400.2c47.11,-326.82 -177.21,-577.52 -496.36,-606.05 -313.27,-28.01 -618.73,105.11 -665.77,439.7 -105.26,748.6 1064.04,846.84 1162.13,166.35z"/>
   <path class="fil0" d="M39950.39 11310.17c226.98,13.19 727.36,3.3 982.47,3.12l-2.11 -203.9 -652.81 0.07 -0.01 -224.89 513.39 -1.05 1.66 -190.58 -513.64 -2.5 -1.37 -211.26 653.65 -0.02 1.22 -196.26c-289.35,0 -708.5,-8.23 -982.5,1.78l0.05 1025.49z"/>
   <path class="fil0" d="M43785.28 11311.56c262.93,10.6 701.59,1.84 983.07,1.73l-2.61 -203.89 -652.96 0.06 -0.01 -224.89 513.67 -1.35 1.35 -189.11 -513.46 -3.72 -1.54 -211.22 653.74 -0.02 1.13 -196.25c-303.16,0 -689.22,-6.88 -982.39,1.12l0.01 1027.54z"/>
   <polygon class="fil0" points="42170.18,12025.24 42824.55,12024.26 42823.28,11828.97 41842.84,11828.89 41842.85,12859.46 42825.06,12857.4 42825.11,12655.84 42170.06,12652.4 42171.82,12430.76 42685.43,12430.55 42680.6,12236.58 42170.18,12236.58 "/>
   <polygon class="fil0" points="52611.87,11309.97 53591.39,11313.34 53594.07,11112.07 52939.14,11109.21 52939.15,10886.65 53452.02,10884.48 53454.23,10690.55 52940.21,10690.41 52939.04,10481.02 53592.55,10479.08 53594.22,10282.9 52611.74,10282.9 "/>
   <polygon class="fil0" points="42892.22,13571.26 43546.52,13570.9 43546.52,13375.05 42564.05,13374.98 42567.98,14405.47 43546.16,14405.28 43542.49,14201.58 42891.62,14201.55 42891.61,13976.69 43406.24,13976.7 43406.31,13782.63 42891.56,13782.61 "/>
   <path class="fil0" d="M49332.25 14134.1c-6.34,89.2 139.41,196.2 215.97,226.52 127.45,50.45 245.14,64.86 383.28,58.14 130.3,-6.33 247.34,-19.71 359.77,-90.23 91.16,-57.18 170,-164.19 154.17,-282.51 -46.05,-344 -665.65,-234.24 -727.29,-381.37 -50.49,-120.48 197.58,-135.92 302.76,-98.62 68.71,24.35 78.39,50.2 117.39,102.1 51.98,-7.96 235.38,-49.2 268.54,-71.89 -97.2,-216.66 -403.46,-253.62 -619.34,-231.11 -317.56,33.13 -468.72,273.74 -359.26,446.5 118.18,186.52 452.16,159.48 630.96,232.87 61.7,25.33 87.61,88.36 31.58,134.53 -81.58,67.23 -384.24,98.15 -466.91,-94.26l-291.62 49.33z"/>
   <path class="fil0" d="M47363.98 12587.77c127.51,429.11 1173.36,365.82 1120.09,-84.13 -13.02,-110 -117.26,-197.43 -216.22,-232.89 -185.75,-66.52 -475.47,-59.97 -510.62,-150.33 -50.76,-130.46 214.41,-134.22 303.23,-99.97 82.5,31.81 68.7,53.55 118.54,102.47l267.97 -69.21c-126.23,-303.39 -782.83,-320.19 -965.75,-61.14 -52.95,74.99 -63.87,188.09 -16.86,268.87 44.96,77.27 120.74,107.99 201.78,136.88 176.17,62.81 535.36,59.03 488.74,200.19 -51.6,91.47 -187.31,90.6 -280.09,80.45 -117.53,-12.85 -157.23,-43.21 -214.94,-140.16l-295.87 48.97z"/>
   <path class="fil0" d="M48084.98 10555.48c21.99,26.33 134.66,310.33 144.83,355.59l-287.95 -1.74 143.12 -353.85zm-589.18 756.66l284.99 0.94 83.73 -212.75 440.83 0.84 87.04 210.1 344.05 1.93c-14.63,-58.45 -320.35,-775.43 -375.34,-905.27 -69.38,-163.8 15.08,-125.03 -428.04,-124.89l-437.26 1029.1z"/>
   <path class="fil0" d="M51294.2 10556.81c23.41,30.63 131.99,305.28 143.9,354.18l-288.22 -1.04 144.32 -353.14zm-590.38 755.29c331.54,1.18 269.06,31.83 323.23,-100.52 13.9,-33.97 29.61,-80.32 48.05,-110.4l438.79 -0.01 87.15 210.61 343.49 1.23c-14.91,-58.41 -272.91,-655.79 -320.14,-772.8 -19.89,-49.23 -85.29,-235.44 -117.91,-257.3l-365.32 0.04 -437.34 1029.15z"/>
   <path class="fil0" d="M44049.72 13999.71c22.56,-59.26 121.64,-320.29 147.46,-352.59l140.22 356.18 -287.68 -3.59zm-82.5 193.5l449.4 4.46 87.12 207.68 336.68 0.13c-6.06,-77.03 -370.74,-862.43 -422.41,-1030.26 -434.56,-0.21 -361.41,-38.73 -427.71,122.59 -64.78,157.61 -379.11,863.85 -382.32,907.66l275.58 0.49 83.66 -212.75z"/>
   <path class="fil0" d="M46701.72 12100.41l139.11 356.5 -287.47 -1.05 148.36 -355.45zm-228.23 546.87l435.06 -0.01c31.81,18.3 80.97,167.34 94.71,211.97l347.52 -0.69 -432.69 -1029.38 -364.55 0.3c-18.24,19.79 -417.32,945.45 -444.81,1030.03l281.3 -1.55 83.46 -210.67z"/>
   <path class="fil0" d="M48661.35 13652.76c23.84,32.02 127.86,297.86 142.7,350.08l-289.51 -0.63 146.81 -349.45zm-220.44 540.65l441.69 0.98 86.92 211.12 342.29 -2.14 -427.25 -1028.35 -375.79 0.74 -436.01 1029.62 276.75 1.28 91.4 -213.25z"/>
   <path class="fil0" d="M40752.57 12484.77c-24.71,35.28 -63.17,243.18 -326.55,184.84 -160.52,-35.56 -183.81,-181.99 -182.88,-326.58 0.87,-135.48 34.81,-290.66 183.97,-324.85 176.33,-40.44 272.31,35.98 295.24,204.83 51.07,11.1 265.51,-7.49 332.94,-10.26 2.89,-121.34 -99.99,-266.4 -198.68,-320.83 -306.67,-169.13 -970.37,-94.56 -971.24,451.11 -1.11,697.11 1117.7,674.5 1171.21,154.48l-304.01 -12.74z"/>
   <path class="fil0" d="M45147.17 12484.52c-33.53,156.29 -162.48,220.95 -318.17,185.33 -161.86,-37.02 -184.64,-179.43 -183.72,-326.82 0.85,-135.93 34.97,-291.61 184.76,-325.1 74.26,-16.61 148.44,-7.82 213.25,31.06 62.41,37.42 71.75,105.82 81.53,178.72l332.95 -15.01c-1.49,-123.39 -96.93,-263.49 -198.77,-320.14 -308.04,-171.33 -970.48,-92.43 -971.52,450.46 -1.35,711.61 1134.67,659.04 1171.47,154.48l-311.78 -12.98z"/>
   <path class="fil0" d="M47723.22 14029.98c-45.13,153.83 -151.96,223.51 -317.3,186.45 -164.6,-36.9 -187.28,-174.05 -187.28,-323.83 0,-141.48 31.37,-291.97 182.97,-327.9 171.42,-40.61 281.41,36.08 295.7,209.5l336.85 -16.16c-26.07,-137.14 -82.26,-255.94 -204.44,-320.98 -324.63,-172.82 -957.03,-79.84 -968.73,438.33 -12.25,543.25 621.3,643.4 954.57,467.28 133.13,-70.36 186.19,-149.61 218.37,-298.82l-310.71 -13.87z"/>
   <path class="fil0" d="M42066.69 14029.83c-45.71,154.41 -150.8,223.64 -317.17,186.63 -167.18,-37.2 -189.43,-180.65 -187.37,-332.32 1.99,-146.31 37.37,-293.78 197.6,-322.45 168.78,-30.19 266.7,44.17 281.04,212.54l336.79 -16.37c-64.56,-336.82 -332.12,-425.27 -645.26,-394.58 -698.62,68.48 -712.16,972.49 -22.67,1051.51 283.72,32.53 613.42,-55.47 667.7,-370.91l-310.66 -14.05z"/>
   <path class="fil0" d="M51263.63 9149.45c51.76,-18.21 122.54,-9.48 159.36,33.83 40.95,48.15 30.64,115.57 19.24,173.5 -20.44,103.73 -39.82,217.49 -149.45,257.64 -281.3,103.01 -206.04,-402.78 -29.15,-464.97zm229.86 -37.96c-61.73,-70.39 -60.76,-103.98 -172.99,-122.62 -247.59,-41.11 -438.55,109 -504.14,352.57 -83.41,309.77 142.79,492.79 390.12,432.07 112.15,-27.55 110.8,-70.33 180.69,-115.6l-19.53 109.07 275.56 0.32 230.39 -1029.96 -295.87 -0.1 -84.23 374.25z"/>
   <path class="fil0" d="M42532.91 9139.93c278.92,-49.4 153.83,455.7 -24.17,487.32 -170.66,30.3 -180.76,-110.54 -155.18,-238.55 21.33,-106.76 61.52,-227.9 179.35,-248.77zm-554 627.35l161.21 -0.04 74.85 -117.24c75.14,50.99 65.6,87.7 180.83,118.24 536.46,142.22 768.9,-574.58 461.54,-740.99 -164.37,-89 -310.93,-46.99 -433.98,70.4l78.07 -360.32 -295.28 -0.48 -227.24 1030.43z"/>
   <path class="fil0" d="M45572.7 9397.24c-4.28,73.58 -48.96,158.66 -106.31,199.73 -210.61,150.87 -360.1,-81.63 -152.4,-160.97 76.5,-29.23 177.37,-41.66 258.71,-38.76zm-561.62 -176.11l266.11 22.18c87.4,-179.99 409.37,-147.74 320.23,42.94 -185.51,18.76 -692.32,14.78 -692.97,287.85 -0.49,206.57 317.01,252.34 496.64,177.66 78.55,-32.65 82.64,-55.39 133.71,-105.91l-5.21 118.93 285.14 2.69c-5.55,-380.92 241.62,-628.66 -71.04,-747.43 -214.47,-81.47 -637.24,-39.64 -732.61,201.09z"/>
   <path class="fil0" d="M41513.22 9396.96c-18.16,219.96 -257.35,300.48 -334.47,216.85 -64.9,-70.37 2.18,-146.34 72.04,-176.73 70.08,-30.5 186.51,-43.08 262.43,-40.12zm-562.58 -175.18l266.77 21.48c39.36,-80.58 103.42,-115.63 195.66,-115.55 123.78,0.12 158.98,42.29 126.26,158.42 -185.52,17.38 -694.48,15.32 -695.37,287.94 -0.47,144.15 156.04,205.11 280.89,210.78 162.81,7.39 247.78,-27.77 353.01,-141.56l-9.11 123.77 284.64 0.24c2.88,-162.88 36.37,-263.88 68.07,-419.4 31.81,-156.1 38.87,-259.79 -129.06,-324.11 -206.08,-78.93 -662.6,-48.22 -741.76,197.99z"/>
   <path class="fil0" d="M52235.24 9294.02c27.98,-96.82 80.79,-156.89 185.71,-167.79 122.99,-12.77 195.77,38.09 183.24,168.12l-368.95 -0.33zm595.91 242.55l-250.13 -31.58c-43.44,93.06 -126.02,130.87 -228.11,120.77 -124.91,-12.37 -151.7,-89.61 -140.71,-201.2l662.87 -3.34c16.47,-158.98 8.82,-213.94 -94.13,-325.58 -136.48,-148.02 -469.35,-141.02 -649.68,-31.43 -306.49,186.27 -322.83,635.31 120.95,712.78 113.71,19.85 260.1,6.73 365.81,-39.55 71.64,-31.36 200.62,-119.87 213.13,-200.87z"/>
   <path class="fil0" d="M49651.15 9138.87c171.5,-53.7 224.71,67.46 203.1,215.02 -14.91,101.79 -47.07,243.88 -157.5,272.98 -318.14,83.82 -224.5,-431.97 -45.6,-488zm-23.79 -152.4c-602.96,72.72 -599.96,870.65 92.53,791.31 594.83,-68.14 604.67,-875.4 -92.53,-791.31z"/>
   <path class="fil0" d="M47469.58 9370.89c-16.86,103 -55.93,241.69 -173.28,260.48 -178.41,28.56 -204.75,-95.07 -181.76,-240.97 16.56,-105.03 56.93,-236.58 175.07,-257.17 178.57,-31.11 203.39,94.45 179.97,237.66zm-215.61 -385.67c-611.68,68.61 -611.4,866.18 78.34,793.26 597.82,-63.22 610.9,-870.56 -78.34,-793.26z"/>
   <path class="fil0" d="M43582.68 9140.47c327.82,-102.85 218.83,434.3 49.69,485.86 -165.4,50.4 -223.22,-64.14 -206.38,-207.18 12.58,-106.94 45.13,-243.67 156.69,-278.68zm-5.82 -156.31c-613.17,62.65 -625.42,862.67 63.45,795.04 604.59,-59.36 618.89,-864.75 -63.45,-795.04z"/>
   <polygon class="fil0" points="39865.48,9765.34 40721.63,9767.19 40765.51,9572.07 40227.89,9571.76 40410.06,8737.32 40094.49,8737.06 "/>
   <path class="fil0" d="M46266.66 8999.12l-171.31 0.41 -39.36 173.15 156.24 3.63c-83.56,399.18 -299.79,657.77 405.64,597.48l41.77 -167.91c-85.71,2.89 -161.49,20.15 -233.07,-29.42 -13.57,-81.38 55.19,-305.4 72.55,-401.01l244.96 -0.5 38.11 -175.16 -235.55 -0.7 48.06 -215.57 -259.27 4.82 -68.77 210.78z"/>
   <polygon class="fil0" points="46328.46,14405.41 46649.83,14405.4 46649.85,13375.03 46328.42,13375.02 "/>
   <polygon class="fil0" points="50243.92,11313.29 50565.31,11313.05 50565.31,10284.49 50243.91,10282.79 "/>
   <polygon class="fil0" points="45647.41,12859.36 45968.58,12859.41 45968.75,12851.09 45966.32,11828.87 45647.38,11829.19 "/>
   <polygon class="fil0" points="41245.25,12859.2 41566.44,12859.41 41566.62,12851.09 41563.87,11828.82 41245.27,11829.93 "/>
   <path class="fil0" d="M48301.2 9165.54l34.42 -165.6 -284.52 -0.41 -171.7 767.21 307.2 0.56c32.49,-115.39 48.89,-273.27 95.01,-377.92 78.78,-178.75 190.91,-162.05 292.39,-181.49l30.47 -218.5c-71.75,2.31 -132.76,5.91 -191.72,48.33 -54.4,39.14 -70.87,81.2 -111.55,127.82z"/>
   <path class="fil0" d="M44617.13 9166.1l33.75 -166.21 -284.34 -0.37 -172.03 767.13 307.6 0.62c26.37,-112.48 52.65,-277.95 94.79,-379.29 24.3,-58.42 56.29,-98.97 105.66,-131.75 73.41,-48.76 114.58,-30.15 186.75,-49.74l30.36 -217.2c-175.26,6.35 -207.06,44.15 -302.54,176.81z"/>
   <polygon class="fil0" points="48605.03,9766.67 48912.57,9767.11 49083.73,9000.96 48775.55,8999.88 "/>
   <path class="fil0" d="M41967.7 11720.48c188.47,24.33 196.08,36.41 359.34,-86.47 156.84,65.28 78.83,129.68 368.35,86.06 -82.26,-44.61 -294.4,-210.83 -369.19,-233.57l-358.5 233.98z"/>
   <path class="fil0" d="M44064.05 13281.61c44.51,-29.41 124.14,-88.85 170.2,-99.88 142.97,107.33 166.49,118.68 355.91,81.34l-361.84 -229.83c-33.79,11.52 -342.13,209.59 -363.18,234.48l198.91 13.89z"/>
   <path class="fil0" d="M48788.88 8939.24l295.85 2.3c26.41,-17.84 27.59,-69.19 35.15,-102.59 8.67,-38.32 18.42,-76.6 24.07,-115.41l-304.79 0.18 -50.28 215.52z"/>
   <polygon class="fil0" points="47239.27,8805.38 47282.27,8888.22 47722.32,8748.29 47651.66,8627.62 "/>
  </g>
  <g id="_1853632269296">
   <path class="fil1" d="M7649.52 5164.61c258.4,-1072.17 2491.85,-2209.44 4323.01,-1352.69 344.08,160.97 1069.13,614.34 1103.47,1009.96 -224.19,0 -465.92,-9.04 -687.61,-2.02 -279.58,8.9 -364.18,61.86 -682.62,59.57 -605.44,-4.25 -2807.86,228.44 -3370.8,228.03 -296.44,-0.2 -423.14,56.88 -685.45,57.15zm8739.53 -285.65c-486.09,-544.32 -387.59,-1462.8 -2124.37,-2673.74 -2046.37,-1426.77 -5415.35,-1467.05 -7483.85,-79.95 -981.49,658.2 -1816.18,1531.27 -2167.41,2687.91 -606.18,1996.45 176.49,3756.9 1747.5,5010.15 742.06,591.87 982.37,539.12 1917.59,538.64 1573.03,-0.81 2966.33,30.3 4525.27,-271.61 493.44,-95.6 1518.05,-256.51 1940.05,-459.04 315.74,-151.6 1113.52,-991.01 1034.92,-1336.57 -9.51,-7.49 -2629.41,-935.07 -2763.13,-956.33l-75.63 90.27c-233.63,276.14 -657.52,589.52 -966.99,745.64 -987.97,498.37 -2178.74,460.45 -3143.16,-20.24 -275.06,-137.09 -988.04,-564.49 -975.83,-896.42l8358.14 -579.94c133.18,204.83 591.88,1810.18 1090.86,2142.58l2918.43 -838.4c-61.05,-227.02 -478.4,-540.13 -652.59,-856.21 -197.34,-358.04 -339.42,-704.2 -327.68,-1161.82 49.45,-1935.26 2601.21,-3074.56 4651.5,-2076.67 391.23,190.45 591.54,445.68 898.1,653.95 423.15,-248.01 2393.96,-963.69 2565.53,-1204.41 -75.36,-280.79 -795.36,-869.02 -1051.46,-1062.04 -745.09,-561.45 -2109.99,-1058.27 -3026.25,-1200.69 -463.96,-72.12 -1668.77,-52.63 -2108.31,20.51 -2012.77,335.17 -4273.75,1651.9 -4781.23,3784.43z"/>
   <path class="fil1" d="M27413.44 6364.15c520.23,0 2667.06,69.96 2997.64,-40.88 -5.73,-538.38 -18.96,-770.87 237.41,-1293.8 942.37,-1922.1 4503.69,-2079.02 5562.63,-37.31 707.78,1364.64 -150.92,2071.34 -286.66,2571.53 424.29,196.33 898.91,340.23 1333.6,551.4 269.93,131.15 1054.42,532.91 1293.99,591 376.26,-333.95 903.84,-1791.55 916.39,-2339.51 24.96,-1094.97 -82.24,-1726.45 -654.76,-2663.15 -795.35,-1301.21 -2396.99,-2232.78 -3864.31,-2533.27 -2478.08,-507.48 -5561.21,294.62 -6926.04,2605.12 -381.65,646.12 -812.22,1861.45 -609.89,2588.87z"/>
   <path class="fil1" d="M18788.13 10077c251.99,352.91 1726.52,793.26 2210.45,874.09 1728.75,288.61 3568,-24.49 5010.29,-1021.98 448.78,-310.41 1378.39,-1102.52 1518.79,-1622.89 -385.3,-91.48 -1996.92,17.95 -2448.13,65.17 -1441.88,150.92 -3021.33,475.03 -4399.79,912.48 -310.81,98.63 -1748.44,592.55 -1891.61,793.13z"/>
   <path class="fil1" d="M36210.04 10419.72c-90.13,-243.55 -1456.05,-756.96 -1677.94,-835.36 -1950.37,-688.82 -4339.74,-1278.14 -6433.21,-1278.14 214.75,895.75 2155.94,2102.91 3234.65,2420.34 1241.71,365.39 1372.46,258.06 2592.24,264.87 484.14,2.77 1854.1,-199.09 2284.26,-571.71z"/>
  </g>
 </g>
</svg>
